<?xml version="1.0" encoding="utf-8"?>
<!-- Svg Vector Icons : http://www.onlinewebfonts.com/icon -->
<!DOCTYPE svg PUBLIC "-//W3C//DTD SVG 1.1//EN" "http://www.w3.org/Graphics/SVG/1.1/DTD/svg11.dtd">
<svg version="1.1" xmlns="http://www.w3.org/2000/svg" xmlns:xlink="http://www.w3.org/1999/xlink" x="0px" y="0px" viewBox="0 0 1000 1000" enable-background="new 0 0 1000 1000" xml:space="preserve">
<metadata> Svg Vector Icons : http://www.onlinewebfonts.com/icon </metadata>
<g><path d="M500,990c-254.5,0-490-17.1-490-140.9c0-97.4,155.5-206.6,346.6-243.5c14-3.3,26-15,30.6-30.3c5-17-0.1-35-14-49.4l-40.1-41.5h5.3c-41.8-59.7-58.9-150.8-58.9-229.4c0-151.5,86.2-245,220.5-245c134.3,0,218.2,95.8,218.2,247.3c0,99.4-29.5,208.9-93,269.9c-12.8,13.5-17.8,31.3-12.8,48.1c4.5,15.2,16.4,26.9,31.1,30.4C834.1,642.2,990,751.5,990,849.1C990,972.9,754.5,990,500,990z M433.5,533.4c5.7,18.1,6.1,37.3,0.6,55.8c-9.5,32.2-35.3,56.9-67.4,64.4C175.8,690.4,59,792.3,59,849.1c0,61,148.4,91.9,441,91.9c292.6,0,441-30.9,441-91.9c0-57-117.1-159-307.8-195.6c-32.8-7.8-58.4-32.4-67.8-64.4c-9.9-33.5-0.5-69.7,25.1-96.6c54.2-52.1,81-152.4,81-237.6c0-122.6-66-196-171.5-196c-105.5,0-171.5,73.4-171.5,196c0,84.8,26.6,185,79.7,236.3l43.6,42.1L433.5,533.4L433.5,533.4z"/></g>
</svg>